<svg width="65" height="52" viewBox="0 0 65 52" fill="none" xmlns="http://www.w3.org/2000/svg">
<path d="M32.5089 52C27.3854 51.917 22.4006 50.3219 18.1806 47.415C13.9607 44.5081 10.6938 40.4191 8.79033 35.6615C6.88685 30.9039 6.43165 25.69 7.4819 20.6745C8.53216 15.659 11.041 11.0657 14.6934 7.47157C18.3458 3.8774 22.9788 1.44262 28.0104 0.473055C33.0421 -0.496511 38.2481 0.0423733 42.9745 2.02202C47.7009 4.00167 51.737 7.3338 54.5757 11.5999C57.4144 15.866 58.9293 20.8758 58.9299 26C58.8658 32.9488 56.0481 39.5885 51.095 44.4626C46.142 49.3368 39.4579 52.0474 32.5089 52ZM32.5089 0.781992C27.5385 0.86162 22.7025 2.40829 18.6084 5.2277C14.5142 8.04711 11.3446 12.0135 9.49752 16.6287C7.65049 21.2438 7.20849 26.3019 8.22704 31.1675C9.24558 36.033 11.6793 40.4891 15.2223 43.9759C18.7654 47.4627 23.2599 49.8247 28.1411 50.7652C33.0223 51.7057 38.0727 51.1828 42.6577 49.2622C47.2427 47.3415 51.1578 44.1087 53.9113 39.9699C56.6648 35.8312 58.1339 30.971 58.1339 26C58.0719 19.2604 55.3392 12.8205 50.5354 8.09292C45.7315 3.36537 39.2487 0.73616 32.5089 0.781992ZM32.5089 50.433C27.6932 50.3559 23.0077 48.8575 19.0409 46.1258C15.0741 43.3942 12.003 39.5513 10.2134 35.0798C8.42383 30.6083 7.99553 25.7076 8.98234 20.9935C9.96914 16.2793 12.327 11.9619 15.7598 8.58361C19.1926 5.2053 23.5472 2.91677 28.2765 2.00549C33.0059 1.09422 37.899 1.60086 42.3413 3.46176C46.7837 5.32265 50.577 8.45482 53.2448 12.4648C55.9126 16.4747 57.3359 21.1837 57.3359 26C57.2757 32.5298 54.6281 38.7691 49.9739 43.3494C45.3197 47.9298 39.0388 50.4772 32.5089 50.433ZM32.5089 2.34899C27.8473 2.4235 23.3117 3.87392 19.4718 6.51807C15.6319 9.16221 12.659 12.8821 10.9266 17.2106C9.19417 21.539 8.77952 26.2828 9.73469 30.8461C10.6899 35.4095 12.9723 39.5887 16.2952 42.859C19.6181 46.1292 23.8334 48.3446 28.4114 49.2267C32.9894 50.1088 37.726 49.6184 42.0262 47.8171C46.3263 46.0157 49.9983 42.9838 52.5807 39.1021C55.1632 35.2205 56.5409 30.6622 56.5409 26C56.4826 19.6793 53.9198 13.6398 49.4146 9.20606C44.9094 4.77233 38.8297 2.30636 32.5089 2.34899Z" fill="black"/>
<path d="M63.932 34.082V18.394C63.9358 18.2214 63.9047 18.0498 63.8405 17.8895C63.7763 17.7293 63.6804 17.5836 63.5585 17.4613C63.4366 17.3391 63.2912 17.2427 63.1312 17.178C62.9711 17.1134 62.7996 17.0817 62.627 17.085H43.684C42.2957 15.3777 40.5442 14.0012 38.5571 13.0559C36.5699 12.1105 34.397 11.62 32.1965 11.62C29.9959 11.62 27.823 12.1105 25.8359 13.0559C23.8487 14.0012 22.0973 15.3777 20.709 17.085H2.38898C2.21629 17.0814 2.04466 17.1129 1.88446 17.1775C1.72426 17.242 1.5788 17.3384 1.45685 17.4607C1.3349 17.583 1.23899 17.7288 1.1749 17.8892C1.11082 18.0496 1.07989 18.2213 1.08398 18.394V34.082C1.08017 34.2546 1.1113 34.4262 1.17548 34.5865C1.23966 34.7467 1.33558 34.8924 1.45748 35.0146C1.57937 35.1369 1.72472 35.2333 1.88479 35.2979C2.04487 35.3626 2.21636 35.3943 2.38898 35.391H20.296C21.6735 37.25 23.4675 38.7605 25.534 39.8012C27.6005 40.842 29.8822 41.3841 32.196 41.3841C34.5098 41.3841 36.7914 40.842 38.8579 39.8012C40.9245 38.7605 42.7184 37.25 44.096 35.391H62.627C62.7997 35.3946 62.9713 35.3631 63.1315 35.2985C63.2917 35.2339 63.4372 35.1376 63.5591 35.0153C63.6811 34.8929 63.777 34.7472 63.841 34.5868C63.9051 34.4264 63.9361 34.2547 63.932 34.082Z" fill="black"/>
<path d="M32.194 41.956C29.8382 41.9635 27.5126 41.4264 25.3987 40.3867C23.2848 39.3469 21.4399 37.8326 20.008 35.962H2.38196C2.13359 35.9688 1.88646 35.9248 1.6557 35.8327C1.42493 35.7406 1.21541 35.6023 1.03995 35.4264C0.864502 35.2505 0.726818 35.0406 0.63534 34.8096C0.543863 34.5786 0.500518 34.3313 0.507962 34.083V18.389C0.500233 18.1405 0.543375 17.8931 0.634739 17.6619C0.726102 17.4307 0.86376 17.2206 1.03926 17.0446C1.21476 16.8685 1.42439 16.7302 1.65529 16.6381C1.88618 16.546 2.13347 16.502 2.38196 16.509H20.438C21.8811 14.7964 23.681 13.4198 25.7117 12.4754C27.7424 11.5311 29.9549 11.0418 32.1945 11.0418C34.434 11.0418 36.6465 11.5311 38.6772 12.4754C40.708 13.4198 42.5078 14.7964 43.951 16.509H62.634C62.8824 16.5022 63.1296 16.5462 63.3605 16.6384C63.5913 16.7305 63.8009 16.8689 63.9763 17.0449C64.1518 17.2209 64.2895 17.4309 64.3809 17.6621C64.4723 17.8932 64.5155 18.1405 64.508 18.389V34.082C64.5157 34.3305 64.4725 34.5779 64.3812 34.8091C64.2898 35.0403 64.1522 35.2503 63.9767 35.4264C63.8012 35.6025 63.5915 35.7408 63.3606 35.8329C63.1297 35.925 62.8825 35.9689 62.634 35.962H44.377C42.9454 37.8322 41.1009 39.3463 38.9876 40.3861C36.8743 41.4258 34.5492 41.9631 32.194 41.956ZM2.38196 16.7C2.15861 16.6937 1.93634 16.7332 1.7288 16.816C1.52127 16.8988 1.33286 17.0232 1.17514 17.1815C1.01743 17.3397 0.893739 17.5286 0.81168 17.7364C0.72962 17.9442 0.690922 18.1667 0.697962 18.39V34.083C0.691067 34.3063 0.729866 34.5286 0.811977 34.7364C0.894088 34.9441 1.01778 35.1329 1.17547 35.2912C1.33315 35.4494 1.5215 35.5738 1.72897 35.6566C1.93644 35.7395 2.15865 35.7791 2.38196 35.773H20.108L20.137 35.81C21.555 37.6622 23.3807 39.1629 25.4723 40.1958C27.5639 41.2286 29.8652 41.7659 32.198 41.7659C34.5307 41.7659 36.8321 41.2286 38.9237 40.1958C41.0153 39.1629 42.8409 37.6622 44.259 35.81L44.288 35.773H62.638C62.8613 35.7792 63.0836 35.7397 63.2911 35.6569C63.4987 35.5741 63.6871 35.4498 63.8448 35.2915C64.0025 35.1332 64.1262 34.9444 64.2082 34.7365C64.2903 34.5287 64.329 34.3063 64.322 34.083V18.389C64.3289 18.1657 64.2901 17.9433 64.2079 17.7356C64.1258 17.5278 64.0021 17.339 63.8445 17.1808C63.6868 17.0225 63.4984 16.8982 63.291 16.8153C63.0835 16.7325 62.8613 16.6929 62.638 16.699H43.862L43.833 16.665C42.4077 14.9639 40.6269 13.5959 38.6159 12.6573C36.605 11.7186 34.4127 11.2322 32.1935 11.2322C29.9742 11.2322 27.782 11.7186 25.771 12.6573C23.76 13.5959 21.9792 14.9639 20.554 16.665L20.526 16.699L2.38196 16.7ZM32.194 41.48C29.8719 41.4884 27.5805 40.9503 25.5048 39.9092C23.4292 38.8681 21.6277 37.3532 20.246 35.487H2.38196C2.13048 35.5044 1.87952 35.4464 1.66115 35.3204C1.44278 35.1945 1.26689 35.0063 1.15596 34.78C1.05047 34.5611 0.991557 34.3228 0.982962 34.08V18.389C0.964836 18.1377 1.02167 17.8867 1.14628 17.6677C1.27089 17.4488 1.45767 17.2717 1.68296 17.159C1.90006 17.0534 2.13674 16.9942 2.37796 16.985H20.661C22.0584 15.276 23.8182 13.8989 25.813 12.9533C27.8078 12.0077 29.9879 11.5171 32.1955 11.5171C34.4031 11.5171 36.5831 12.0077 38.5779 12.9533C40.5727 13.8989 42.3325 15.276 43.73 16.985H62.63C62.8814 16.9676 63.1324 17.0256 63.3508 17.1515C63.5691 17.2775 63.745 17.4656 63.856 17.692C63.9614 17.9108 64.0203 18.1492 64.029 18.392V34.085C64.0471 34.3363 63.9902 34.5873 63.8656 34.8062C63.741 35.0252 63.5543 35.2022 63.329 35.315C63.1119 35.4205 62.8752 35.4798 62.634 35.489H44.142C42.7599 37.3546 40.9582 38.8689 38.8826 39.9095C36.8071 40.9501 34.5158 41.4877 32.194 41.479V41.48ZM20.708 17.176H2.38196C2.17024 17.1851 1.96264 17.2375 1.77196 17.33C1.57814 17.427 1.41759 17.5795 1.31074 17.7681C1.20389 17.9567 1.15558 18.1728 1.17196 18.389V34.082C1.18086 34.2943 1.23292 34.5025 1.32496 34.694C1.42138 34.8877 1.57335 35.0482 1.76145 35.155C1.94955 35.2619 2.16524 35.3103 2.38096 35.294H20.341L20.369 35.332C21.7379 37.1789 23.5205 38.6794 25.5738 39.7133C27.6271 40.7472 29.894 41.2857 32.193 41.2857C34.4919 41.2857 36.7588 40.7472 38.8121 39.7133C40.8654 38.6794 42.648 37.1789 44.017 35.332L44.046 35.294H62.634C62.8456 35.2851 63.0532 35.2331 63.244 35.141C63.4379 35.0438 63.5985 34.8911 63.7053 34.7023C63.8121 34.5135 63.8604 34.2973 63.844 34.081V18.389C63.835 18.1767 63.7829 17.9685 63.691 17.777C63.5945 17.5833 63.4426 17.4228 63.2545 17.3159C63.0664 17.209 62.8507 17.1607 62.635 17.177H43.639L43.61 17.142C42.2305 15.445 40.49 14.0769 38.5152 13.1372C36.5404 12.1975 34.3809 11.7099 32.194 11.7099C30.007 11.7099 27.8475 12.1975 25.8727 13.1372C23.8979 14.0769 22.1574 15.445 20.778 17.142L20.749 17.177L20.708 17.176ZM32.197 41.005C29.9402 41.0137 27.7132 40.4892 25.6975 39.4744C23.6817 38.4596 21.9341 36.983 20.597 35.165L20.483 35.012H2.38296C2.25912 35.0199 2.13501 35.0014 2.01892 34.9575C1.90283 34.9137 1.79744 34.8455 1.70978 34.7577C1.62213 34.6699 1.55423 34.5643 1.51063 34.4481C1.46704 34.332 1.44874 34.2078 1.45696 34.084V18.384C1.44877 18.2602 1.46705 18.1361 1.51058 18.0199C1.55411 17.9038 1.6219 17.7982 1.70942 17.7103C1.79695 17.6224 1.9022 17.5542 2.01817 17.5102C2.13413 17.4661 2.25815 17.4473 2.38196 17.455H20.882L20.996 17.315C22.3489 15.6506 24.0559 14.3087 25.9928 13.3871C27.9296 12.4655 30.0475 11.9873 32.1925 11.9873C34.3374 11.9873 36.4553 12.4655 38.3922 13.3871C40.329 14.3087 42.036 15.6506 43.389 17.315L43.503 17.455H62.633C62.7568 17.447 62.8809 17.4656 62.997 17.5094C63.1131 17.5533 63.2185 17.6214 63.3061 17.7093C63.3938 17.7971 63.4617 17.9026 63.5053 18.0188C63.5489 18.135 63.5672 18.2592 63.559 18.383V34.083C63.5672 34.2068 63.5489 34.3308 63.5053 34.447C63.4618 34.5632 63.394 34.6687 63.3065 34.7566C63.219 34.8445 63.1137 34.9128 62.9978 34.9568C62.8818 35.0008 62.7578 35.0196 62.634 35.012H43.908L43.794 35.165C42.4569 36.9831 40.7093 38.4597 38.6935 39.4745C36.6777 40.4894 34.4508 41.0137 32.194 41.005H32.197ZM2.38496 17.65C2.28612 17.6424 2.18683 17.6564 2.0939 17.6909C2.00098 17.7254 1.91664 17.7797 1.84669 17.8499C1.77674 17.9201 1.72285 18.0047 1.68871 18.0978C1.65458 18.1908 1.64102 18.2902 1.64896 18.389V34.082C1.64102 34.1808 1.65458 34.2801 1.68871 34.3732C1.72285 34.4663 1.77674 34.5508 1.84669 34.621C1.91664 34.6913 2.00098 34.7455 2.0939 34.78C2.18683 34.8146 2.28612 34.8285 2.38496 34.821H20.585L20.756 35.05C22.0809 36.8379 23.8063 38.2905 25.7938 39.2914C27.7813 40.2924 29.9756 40.8137 32.201 40.8137C34.4263 40.8137 36.6206 40.2924 38.6082 39.2914C40.5957 38.2905 42.321 36.8379 43.646 35.05L43.817 34.821H62.634C62.7328 34.8285 62.8321 34.8146 62.925 34.78C63.0179 34.7455 63.1023 34.6913 63.1722 34.621C63.2422 34.5508 63.2961 34.4663 63.3302 34.3732C63.3643 34.2801 63.3779 34.1808 63.37 34.082V18.389C63.3779 18.2902 63.3643 18.1908 63.3302 18.0978C63.2961 18.0047 63.2422 17.9201 63.1722 17.8499C63.1023 17.7797 63.0179 17.7254 62.925 17.6909C62.8321 17.6564 62.7328 17.6424 62.634 17.65H43.414L43.243 17.441C41.9078 15.7982 40.2232 14.4737 38.3117 13.564C36.4002 12.6543 34.3099 12.1823 32.193 12.1823C30.076 12.1823 27.9857 12.6543 26.0742 13.564C24.1627 14.4737 22.4781 15.7982 21.143 17.441L20.972 17.65H2.38496Z" fill="black"/>
<path d="M25.678 35.053C30.021 35.053 33.829 31.972 33.829 26.368C33.829 20.764 30.02 17.683 25.678 17.683C21.336 17.683 17.527 20.764 17.527 26.368C17.527 31.972 21.336 35.053 25.678 35.053ZM25.678 32.433C23.178 32.433 21.408 30.589 21.408 26.441C21.408 22.268 23.179 20.352 25.678 20.352C28.153 20.352 29.948 22.269 29.948 26.441C29.948 30.59 28.148 32.433 25.678 32.433ZM36.037 34.859H47.488V32.19H39.773V27.532H45.11V24.932H39.773V20.617H47.221V17.877H36.038V34.859H36.037Z" fill="white"/>
<path d="M18.3869 15.602L18.9869 15.032L18.4429 13.925L19.5719 12.849L20.6609 13.436L21.3829 12.747L21.1959 12.547L17.0759 10.458L16.3059 11.192L18.2059 15.402L18.3929 15.602H18.3869ZM17.3259 11.655L17.3359 11.646L18.9139 12.497L18.1139 13.263L17.3289 11.655H17.3259ZM21.8629 12.455L22.7469 11.925L21.8879 10.491L22.2959 10.246C23.3169 9.63497 23.6469 8.87397 23.1339 8.01797C22.6209 7.16197 21.8039 7.09698 20.8009 7.69798L19.4859 8.48597L21.8629 12.454V12.455ZM20.7499 8.59198L21.1579 8.34698C21.7189 8.01098 21.9959 8.13797 22.2499 8.56297C22.5039 8.98797 22.4769 9.32797 21.9389 9.65097L21.5309 9.89598L20.7499 8.59597V8.59198ZM25.2969 10.516L26.2749 10.189L25.7449 8.60298L26.1959 8.45198C27.3239 8.07498 27.8099 7.40298 27.4959 6.45198C27.1819 5.50098 26.3959 5.26597 25.2859 5.63697L23.8319 6.12297L25.2989 10.51L25.2969 10.516ZM25.0419 6.50398L25.4929 6.35298C26.1129 6.14498 26.3559 6.32898 26.5129 6.79898C26.6699 7.26898 26.5699 7.59898 25.9749 7.79898L25.5239 7.94998L25.0419 6.50897V6.50398ZM31.6699 9.07197L32.6089 8.97198L32.5799 8.70297L31.4269 7.07997C31.6494 6.94341 31.8256 6.74305 31.9326 6.50494C32.0396 6.26683 32.0725 6.00202 32.0269 5.74498C31.9269 4.85798 31.2439 4.46698 30.1139 4.58998L28.5699 4.75697L29.0699 9.35698L30.0949 9.24597L29.8949 7.44598L30.4949 7.38098L31.6699 9.07197ZM29.6699 5.37198L30.1629 5.31898C30.7019 5.25998 30.9499 5.46598 30.9989 5.91298C31.0479 6.35998 30.8499 6.62697 30.3119 6.68597L29.8189 6.73898L29.6699 5.37297V5.37198ZM35.1169 9.30497C35.5831 9.39784 36.0665 9.3484 36.5043 9.16308C36.9421 8.97777 37.3141 8.66514 37.5719 8.26576C37.8298 7.86638 37.9617 7.39869 37.9504 6.92343C37.9391 6.44817 37.7853 5.98727 37.5087 5.60057C37.2322 5.21386 36.8458 4.9192 36.3998 4.75485C35.9537 4.59049 35.4685 4.56404 35.0072 4.67891C34.5459 4.79377 34.1297 5.04464 33.8128 5.39898C33.4959 5.75332 33.2928 6.19476 33.2299 6.66598C33.1654 6.9646 33.164 7.27341 33.2259 7.57258C33.2878 7.87176 33.4115 8.15468 33.5892 8.40319C33.7669 8.65171 33.9946 8.86032 34.2577 9.01562C34.5208 9.17092 34.8135 9.26948 35.1169 9.30497ZM35.2109 8.59797C34.5359 8.50797 34.1249 7.94597 34.2749 6.82597C34.4249 5.70597 34.9749 5.24598 35.6479 5.33598C36.3209 5.42598 36.7319 6.00797 36.5809 7.13597C36.4299 8.26397 35.8809 8.68897 35.2109 8.59997V8.59797ZM38.8399 10.168L39.8219 10.561L42.8499 7.08097L42.9499 6.82898L42.1579 6.51297L39.8489 9.26197H39.8369L40.0659 5.68098L39.1519 5.31497L39.0519 5.56697L38.8409 10.173L38.8399 10.168ZM41.6969 11.446L44.2799 13.194L44.6879 12.594L42.9469 11.416L43.6579 10.365L44.8579 11.18L45.2579 10.594L44.0579 9.77897L44.7169 8.80497L46.3969 9.94197L46.8159 9.32397L44.2929 7.61598L41.6999 11.447L41.6969 11.446ZM44.7769 13.6L45.7539 14.65C45.9372 14.9212 46.1803 15.1468 46.4644 15.3092C46.7486 15.4717 47.0663 15.5668 47.393 15.5872C47.7197 15.6076 48.0468 15.5527 48.3489 15.4268C48.6511 15.3009 48.9203 15.1073 49.1359 14.861C50.2969 13.781 50.2159 12.656 49.1589 11.518L48.1639 10.449L44.7799 13.602L44.7769 13.6ZM46.0109 13.86L48.3239 11.709L48.5989 12.009C49.2559 12.716 49.2389 13.327 48.4059 14.102C47.5729 14.877 46.9379 14.863 46.2859 14.161L46.0119 13.861L46.0109 13.86Z" fill="black"/>
<path d="M14.1619 38.298L14.667 38.952L15.824 38.526L16.778 39.76L16.0779 40.783L16.688 41.573L16.9019 41.407L19.4019 37.526L18.751 36.684L14.367 38.133L14.153 38.299L14.1619 38.298ZM18.198 37.652L18.2059 37.662L17.196 39.144L16.517 38.265L18.197 37.651L18.198 37.652ZM17.9829 42.952L18.811 43.566L19.811 42.224L20.1929 42.508C21.1479 43.217 21.977 43.231 22.572 42.43C23.167 41.629 22.914 40.849 21.972 40.152L20.741 39.238L17.9849 42.953L17.9829 42.952ZM21.126 40.446L21.5079 40.73C22.0329 41.12 22.022 41.424 21.726 41.822C21.43 42.22 21.106 42.322 20.602 41.951L20.2199 41.668L21.126 40.447V40.446ZM22.2879 46.004L23.2459 46.385L23.863 44.831L24.3049 45.007C25.4109 45.447 26.215 45.247 26.584 44.32C26.953 43.393 26.508 42.704 25.421 42.272L23.9959 41.706L22.2879 46.006V46.004ZM24.681 42.774L25.1229 42.95C25.7309 43.192 25.798 43.488 25.615 43.95C25.432 44.412 25.145 44.595 24.562 44.363L24.1199 44.187L24.681 42.774ZM29.82 48.203L30.757 48.323L30.7909 48.054L30.047 46.207C30.295 46.126 30.5129 45.9722 30.6723 45.7657C30.8317 45.5592 30.9253 45.3094 30.9409 45.049C31.0539 44.164 30.477 43.624 29.349 43.48L27.808 43.28L27.222 47.869L28.2449 48L28.474 46.2L29.074 46.276L29.822 48.197L29.82 48.203ZM28.742 44.138L29.2339 44.201C29.7719 44.27 29.965 44.527 29.908 44.973C29.851 45.419 29.597 45.633 29.06 45.564L28.5679 45.501L28.742 44.138ZM34.6049 48.269C35.0792 48.2391 35.5335 48.0674 35.9089 47.7761C36.2843 47.4848 36.5635 47.0873 36.7102 46.6354C36.8569 46.1834 36.8644 45.6978 36.7316 45.2415C36.5989 44.7853 36.332 44.3795 35.9657 44.0768C35.5994 43.7741 35.1506 43.5885 34.6775 43.544C34.2044 43.4996 33.7289 43.5984 33.3127 43.8277C32.8964 44.0569 32.5587 44.406 32.3434 44.8295C32.128 45.2531 32.0449 45.7316 32.1049 46.203C32.1193 46.508 32.1972 46.8067 32.3337 47.0799C32.4703 47.353 32.6624 47.5946 32.8978 47.7892C33.1332 47.9837 33.4067 48.1269 33.7007 48.2095C33.9947 48.2921 34.3027 48.3124 34.6049 48.269ZM34.515 47.561C33.84 47.647 33.297 47.21 33.154 46.089C33.011 44.968 33.423 44.383 34.098 44.296C34.773 44.209 35.318 44.667 35.462 45.796C35.606 46.925 35.184 47.477 34.515 47.562V47.561ZM39.615 47.074L40.588 46.661L40.283 42.061L40.1769 41.812L39.392 42.145L39.6919 45.723L39.6799 45.728L37.3179 43.028L36.4119 43.413L36.518 43.662L39.618 47.078L39.615 47.074ZM43.646 45.169L46.106 43.252L45.659 42.679L44.001 43.971L43.2209 42.971L44.368 42.077L43.933 41.52L42.7859 42.413L42.063 41.485L43.6629 40.238L43.2039 39.649L40.8039 41.522L43.6479 45.17L43.646 45.169ZM47.5529 41.93L48.444 40.806C48.6847 40.584 48.8712 40.3097 48.9892 40.0043C49.1072 39.6988 49.1535 39.3704 49.1245 39.0442C49.0955 38.718 48.992 38.4028 48.822 38.123C48.652 37.8431 48.42 37.606 48.144 37.43C46.901 36.445 45.801 36.695 44.836 37.913L43.9289 39.058L47.5549 41.931L47.5529 41.93ZM47.6239 40.67L45.1479 38.708L45.3979 38.392C45.9979 37.636 46.605 37.56 47.498 38.266C48.391 38.972 48.4719 39.602 47.8759 40.353L47.6259 40.669L47.6239 40.67Z" fill="black"/>
</svg>
