<svg width="25" height="21" viewBox="0 0 25 21" fill="none" xmlns="http://www.w3.org/2000/svg">
<path d="M8.70704 21C9.9182 21 10.9 20.0182 10.9 18.807C10.9 17.5958 9.9182 16.614 8.70704 16.614C7.49588 16.614 6.51404 17.5958 6.51404 18.807C6.51404 20.0182 7.49588 21 8.70704 21Z" fill="black"/>
<path d="M19.9031 21C21.1142 21 22.0961 20.0182 22.0961 18.807C22.0961 17.5958 21.1142 16.614 19.9031 16.614C18.6919 16.614 17.7101 17.5958 17.7101 18.807C17.7101 20.0182 18.6919 21 19.9031 21Z" fill="black"/>
<path d="M8.24104 12.362H22.532L24.632 2.472H6.38804L5.92504 0H0.81604V1.648H4.45704L7.08204 15.659H22.69V14.011H8.55004L8.24104 12.362Z" fill="black"/>
</svg>
