<svg width="30" height="26" viewBox="0 0 30 26" fill="none" xmlns="http://www.w3.org/2000/svg">
<path d="M10.1151 25.645C11.3263 25.645 12.3081 24.6631 12.3081 23.452C12.3081 22.2408 11.3263 21.259 10.1151 21.259C8.90396 21.259 7.92212 22.2408 7.92212 23.452C7.92212 24.6631 8.90396 25.645 10.1151 25.645Z" fill="#9C9D9D"/>
<path d="M25.0251 25.645C26.2363 25.645 27.2181 24.6631 27.2181 23.452C27.2181 22.2408 26.2363 21.259 25.0251 21.259C23.8139 21.259 22.8321 22.2408 22.8321 23.452C22.8321 24.6631 23.8139 25.645 25.0251 25.645Z" fill="#9C9D9D"/>
<path d="M9.74611 16.032H27.1911L29.7541 3.21196H7.4831L6.91911 0.0119629H0.683105V2.14796H5.12711L8.32711 20.305H27.3831V18.169H10.1231L9.74611 16.032Z" fill="#9C9D9D"/>
</svg>
