<svg width="12" height="12" viewBox="0 0 12 12" fill="none" xmlns="http://www.w3.org/2000/svg">
<path d="M12 6C12 2.68629 9.31371 0 6 0C2.68629 0 0 2.68629 0 6C0 9.31371 2.68629 12 6 12C9.31371 12 12 9.31371 12 6Z" fill="black"/>
<path d="M11.5 6C11.5 2.96243 9.03757 0.5 6 0.5C2.96243 0.5 0.5 2.96243 0.5 6C0.5 9.03757 2.96243 11.5 6 11.5C9.03757 11.5 11.5 9.03757 11.5 6Z" stroke="#FFA500"/>
<path d="M5.89294 3V9" stroke="#FFA500" stroke-width="1.5" stroke-linecap="round"/>
<path d="M3 6H9" stroke="#FFA500" stroke-width="1.5" stroke-linecap="round"/>
</svg>
