<svg width="14" height="14" viewBox="0 0 14 14" fill="none" xmlns="http://www.w3.org/2000/svg">
<path d="M6.99902 14.0002C8.38349 14.0002 9.73686 13.5897 10.888 12.8205C12.0391 12.0513 12.9364 10.958 13.4662 9.67892C13.996 8.39983 14.1346 6.99235 13.8645 5.63448C13.5944 4.27661 12.9277 3.02946 11.9488 2.0505C10.9698 1.07153 9.72252 0.404578 8.36465 0.134481C7.00679 -0.135615 5.5993 0.0031051 4.32022 0.532919C3.04114 1.06273 1.94791 1.9599 1.17874 3.11104C0.409572 4.26219 -0.000976562 5.61573 -0.000976562 7.0002C-0.000976562 8.85672 0.736531 10.6372 2.04929 11.9499C3.36204 13.2627 5.14251 14.0002 6.99902 14.0002V14.0002Z" fill="#008435"/>
<path d="M4.53809 7.88802L5.61609 9.4178C5.65708 9.47876 5.71202 9.5293 5.77634 9.56477C5.84066 9.60025 5.91251 9.61975 5.98593 9.6219C6.05936 9.62405 6.13223 9.60863 6.19852 9.57698C6.2648 9.54533 6.32261 9.49822 6.3671 9.43977L9.81808 5.07307" stroke="white" stroke-width="1.5" stroke-linecap="round" stroke-linejoin="round"/>
</svg>
