<svg width="26" height="22" viewBox="0 0 26 22" fill="none" xmlns="http://www.w3.org/2000/svg">
<path d="M20.8941 1.97297C20.6897 1.39589 20.3114 0.896327 19.8115 0.543015C19.3115 0.189702 18.7143 0 18.1021 0C17.4899 0 16.8927 0.189702 16.3927 0.543015C15.8927 0.896327 15.5145 1.39589 15.3101 1.97297H0.330078V3.94797H15.3091C15.5135 4.52505 15.8917 5.02461 16.3917 5.37792C16.8917 5.73123 17.4889 5.92094 18.1011 5.92094C18.7133 5.92094 19.3105 5.73123 19.8105 5.37792C20.3104 5.02461 20.6887 4.52505 20.8931 3.94797H26.0001V1.97297H20.8941Z" fill="#9C9D9D"/>
<path d="M8.23008 7.89697C7.61779 7.89785 7.02076 8.08813 6.52089 8.44173C6.02102 8.79532 5.6428 9.29492 5.43808 9.87198H0.330078V11.847H5.43608C5.6405 12.4241 6.01872 12.9236 6.5187 13.2769C7.01868 13.6302 7.61586 13.8199 8.22808 13.8199C8.84029 13.8199 9.43747 13.6302 9.93745 13.2769C10.4374 12.9236 10.8157 12.4241 11.0201 11.847H26.0001V9.87198H11.0211C10.8164 9.29508 10.4383 8.7956 9.93867 8.44202C9.439 8.08843 8.8422 7.89806 8.23008 7.89697Z" fill="#9C9D9D"/>
<path d="M18.1011 15.796C17.4888 15.7968 16.8918 15.9871 16.3919 16.3407C15.892 16.6943 15.5138 17.1939 15.3091 17.771H0.330078V19.746H15.3091C15.5135 20.3231 15.8917 20.8226 16.3917 21.1759C16.8917 21.5292 17.4889 21.7189 18.1011 21.7189C18.7133 21.7189 19.3105 21.5292 19.8105 21.1759C20.3104 20.8226 20.6887 20.3231 20.8931 19.746H26.0001V17.771H20.8941C20.6893 17.1938 20.3109 16.694 19.8109 16.3404C19.3108 15.9868 18.7135 15.7966 18.1011 15.796Z" fill="#9C9D9D"/>
</svg>
