<svg width="20" height="25" viewBox="0 0 20 25" fill="none" xmlns="http://www.w3.org/2000/svg">
<path d="M10.745 0.556015V9.02002C10.745 9.08128 10.7693 9.14004 10.8126 9.18336C10.856 9.22668 10.9147 9.25101 10.976 9.25101H19.439C19.4623 9.25142 19.4853 9.24477 19.5048 9.23193C19.5243 9.21908 19.5395 9.20065 19.5483 9.17904C19.5572 9.15743 19.5593 9.13364 19.5544 9.1108C19.5496 9.08796 19.5379 9.06712 19.521 9.05101L10.941 0.471016C10.9249 0.454098 10.904 0.442437 10.8812 0.437557C10.8583 0.432678 10.8346 0.434807 10.8129 0.443668C10.7913 0.452529 10.7729 0.467706 10.7601 0.487217C10.7472 0.506727 10.7406 0.529662 10.741 0.553016L10.745 0.556015Z" fill="#9C9D9D"/>
<path d="M9.545 10.714C9.42556 10.7151 9.31057 10.6687 9.22527 10.5851C9.13996 10.5015 9.09132 10.3875 9.09 10.268V2.68674e-05H0.681999C0.593225 -0.000764569 0.505163 0.0159363 0.422844 0.0491792C0.340525 0.0824222 0.265563 0.131556 0.202232 0.193772C0.138902 0.255987 0.088448 0.330069 0.0537491 0.411785C0.0190502 0.493501 0.000784443 0.58125 0 0.670025V24.33C0.000784443 24.4188 0.0190502 24.5066 0.0537491 24.5883C0.088448 24.67 0.138902 24.7441 0.202232 24.8063C0.265563 24.8685 0.340525 24.9176 0.422844 24.9509C0.505163 24.9841 0.593225 25.0008 0.681999 25H19.318C19.4068 25.0008 19.4948 24.9841 19.5772 24.9509C19.6595 24.9176 19.7344 24.8685 19.7978 24.8063C19.8611 24.7441 19.9116 24.67 19.9463 24.5883C19.9809 24.5066 19.9992 24.4188 20 24.33V10.714H9.545ZM15.454 19.643H4.545V17.857H15.455L15.454 19.643ZM15.454 15.179H4.545V13.393H15.455L15.454 15.179Z" fill="#9C9D9D"/>
</svg>
