<svg width="25" height="27" viewBox="0 0 25 27" fill="none" xmlns="http://www.w3.org/2000/svg">
<path d="M12.032 13.1689C13.3134 13.1689 14.5661 12.789 15.6315 12.077C16.697 11.3651 17.5274 10.3532 18.0178 9.16934C18.5082 7.98546 18.6365 6.68275 18.3865 5.42595C18.1365 4.16915 17.5194 3.0147 16.6133 2.1086C15.7072 1.20249 14.5528 0.585427 13.296 0.335433C12.0392 0.0854394 10.7365 0.213743 9.55259 0.704124C8.36871 1.1945 7.35683 2.02493 6.64491 3.0904C5.93299 4.15587 5.553 5.40852 5.553 6.68994C5.553 8.40828 6.23561 10.0562 7.45066 11.2713C8.6657 12.4863 10.3137 13.1689 12.032 13.1689ZM12.032 15.0199C8.016 15.0199 0 17.4999 0 22.4199V26.1199H24.064V22.4199C24.064 17.4999 16.048 15.0199 12.032 15.0199Z" fill="#9C9D9D"/>
</svg>
