<svg width="36" height="36" viewBox="0 0 36 36" fill="none" xmlns="http://www.w3.org/2000/svg">
<path d="M36 18C36 8.05887 27.9411 0 18 0C8.05887 0 0 8.05887 0 18C0 27.9411 8.05887 36 18 36C27.9411 36 36 27.9411 36 18Z" fill="#FFA500"/>
<path d="M20.1411 22.799C21.4236 22.2539 22.5156 21.3407 23.2791 20.175C24.0426 19.0092 24.4433 17.6434 24.4305 16.2499C24.4178 14.8564 23.9921 13.4979 23.2073 12.3463C22.4225 11.1948 21.3138 10.3019 20.0216 9.78043C18.7293 9.25895 17.3113 9.13231 15.9471 9.41666C14.5829 9.70101 13.3336 10.3835 12.3573 11.3778C11.381 12.3722 10.7214 13.6337 10.462 15.0028C10.2026 16.372 10.355 17.7874 10.9 19.07C11.2619 19.9216 11.788 20.6936 12.4483 21.3419C13.1086 21.9903 13.8901 22.5023 14.7482 22.8485C15.6063 23.1948 16.5242 23.3688 17.4495 23.3603C18.3748 23.3518 19.2894 23.1609 20.1411 22.799V22.799Z" stroke="black" stroke-width="2" stroke-linecap="round" stroke-linejoin="round"/>
<path d="M22.3671 21.2891L27.832 26.7549" stroke="black" stroke-width="2" stroke-linecap="round" stroke-linejoin="round"/>
</svg>
